<mxfile host="app.diagrams.net" modified="2024-06-10T07:08:00.135Z" agent="Mozilla/5.0 (Windows NT 10.0; Win64; x64) AppleWebKit/537.36 (KHTML, like Gecko) Chrome/125.0.0.0 Safari/537.36 Edg/125.0.0.0" version="24.4.13" etag="0OEqrmSvR7TjlGeAZpQW" type="github">
  <diagram name="第 1 页" id="kiSHpbX1HlkQIcSr-4cd">
    <mxGraphModel>
      <root>
        <mxCell id="0" />
        <mxCell id="1" parent="0" />
      </root>
    </mxGraphModel>
  </diagram>
</mxfile>
